<?xml version="1.0" standalone="no"?>
<!DOCTYPE svg PUBLIC "-//W3C//DTD SVG 20010904//EN"
 "http://www.w3.org/TR/2001/REC-SVG-20010904/DTD/svg10.dtd">
<svg version="1.0" xmlns="http://www.w3.org/2000/svg"
 width="512.000000pt" height="512.000000pt" viewBox="0 0 512.000000 512.000000"
 preserveAspectRatio="xMidYMid meet">
<metadata>
Created by potrace 1.11, written by Peter Selinger 2001-2013
</metadata>
<g transform="translate(0.000000,512.000000) scale(0.100000,-0.100000)"
fill="#000000" stroke="none">
<path d="M0 2560 l0 -2560 2560 0 2560 0 0 2560 0 2560 -396 0 -397 0 8 -42
c20 -125 25 -172 25 -265 1 -76 5 -104 16 -113 7 -7 14 -18 14 -24 0 -7 17
-28 38 -48 41 -39 96 -142 112 -211 16 -70 12 -163 -11 -230 -11 -34 -24 -66
-29 -72 -4 -5 -13 -37 -20 -69 -14 -69 -28 -103 -52 -130 -9 -10 -25 -35 -34
-55 -21 -45 -148 -169 -199 -196 -44 -22 -103 -59 -123 -75 -27 -23 -130 -32
-248 -22 -63 6 -118 13 -121 15 -11 12 53 77 75 77 12 0 22 5 22 11 0 6 8 8
20 4 27 -9 55 9 70 44 6 16 18 32 26 35 8 3 14 11 14 18 0 7 14 21 30 30 17
10 33 25 36 35 12 37 48 113 54 113 9 0 60 98 58 110 -3 10 31 34 64 46 10 3
28 27 40 52 13 25 35 58 51 75 15 16 27 32 27 36 0 3 25 33 55 66 30 33 55 65
55 70 0 16 -70 85 -86 85 -18 0 -18 25 -1 42 42 41 48 95 15 124 -36 31 -125
85 -188 115 -32 15 -59 31 -61 36 -4 10 -138 81 -201 107 -21 8 -38 19 -38 24
0 13 -141 62 -177 62 -30 0 -73 -35 -73 -58 0 -7 -11 -12 -25 -12 -14 0 -25 5
-25 10 0 6 -16 10 -35 10 -25 0 -35 -4 -35 -15 0 -9 -6 -26 -14 -38 -8 -12
-17 -38 -21 -57 -4 -19 -21 -63 -37 -98 -24 -51 -28 -70 -23 -102 7 -39 6 -40
-24 -40 -30 0 -81 -41 -81 -66 0 -6 -11 -22 -24 -36 -12 -14 -33 -41 -44 -61
-21 -33 -22 -36 -5 -101 18 -75 19 -71 -47 -181 -43 -71 -43 -72 -35 -103 10
-36 10 -78 1 -129 -6 -36 -4 -47 18 -79 27 -40 25 -50 -15 -103 -14 -17 -19
-19 -19 -8 0 9 -7 20 -15 24 -16 9 -45 84 -45 117 0 13 -21 40 -54 70 -55 49
-96 121 -96 167 0 12 -6 56 -14 98 -40 213 -42 290 -11 439 16 77 64 212 76
212 4 0 25 30 45 67 21 37 54 83 73 103 20 19 44 48 54 63 l17 27 -1565 0
-1565 0 0 -2560z m3585 2300 c22 -11 46 -20 55 -20 9 0 25 -8 36 -18 17 -17
81 -54 204 -119 24 -13 47 -27 50 -32 6 -9 100 -69 143 -91 16 -8 39 -24 52
-36 12 -11 39 -29 59 -40 53 -28 146 -97 146 -109 -1 -5 -19 -22 -40 -37 -22
-15 -40 -34 -40 -42 0 -26 -44 -97 -90 -145 -50 -52 -92 -68 -116 -44 -12 13
-154 73 -171 73 -16 0 26 -34 59 -47 21 -8 38 -18 38 -22 0 -3 21 -19 45 -36
41 -27 59 -55 36 -55 -8 0 -91 -125 -91 -137 0 -14 -34 -43 -52 -43 -10 0 -18
-4 -18 -9 0 -17 -29 -20 -45 -5 -13 14 -15 14 -15 0 0 -8 9 -22 21 -30 21 -14
21 -15 4 -44 -16 -27 -23 -30 -65 -28 -43 2 -136 31 -185 59 -11 6 -33 18 -50
26 -16 9 -32 19 -35 22 -3 3 -21 11 -40 19 -19 7 -53 25 -75 40 -22 14 -52 31
-66 39 -14 7 -43 28 -64 47 -21 19 -44 34 -50 34 -6 0 -21 9 -33 21 -22 20
-22 20 -4 47 11 15 23 38 27 51 4 14 16 34 27 45 11 12 22 33 25 48 l5 27 27
-25 c41 -38 46 -28 9 18 -36 46 -60 110 -51 137 5 11 75 123 87 137 1 1 20 4
43 8 30 4 46 2 56 -9 17 -16 99 -47 106 -39 6 6 -38 46 -73 65 -38 20 -63 104
-40 130 21 24 54 114 54 148 0 28 9 36 45 40 6 0 28 -8 50 -19z m-2350 -150
c22 -50 51 -104 65 -120 14 -16 50 -78 80 -137 30 -60 61 -113 69 -119 10 -8
-2 -18 -53 -43 -36 -18 -71 -41 -76 -52 -6 -10 -16 -19 -23 -19 -7 0 -30 -14
-50 -31 -57 -47 -74 -33 -149 118 -33 68 -64 123 -68 123 -4 0 -19 26 -34 58
-14 31 -40 75 -57 97 -16 23 -27 47 -24 55 7 18 52 48 154 102 42 23 78 45 79
50 2 4 13 8 25 8 18 0 30 -17 62 -90z m601 -735 c9 -38 -2 -41 -19 -6 -13 26
-13 31 -1 31 7 0 16 -11 20 -25z m-10 -114 c10 -18 28 -44 39 -56 11 -13 37
-57 57 -98 21 -41 44 -82 52 -90 16 -16 29 -37 96 -162 24 -44 49 -84 55 -90
7 -5 24 -31 38 -57 42 -76 79 -133 93 -141 8 -4 14 -12 14 -18 0 -5 17 -36 37
-67 21 -31 43 -68 49 -82 6 -14 25 -39 40 -57 16 -17 40 -53 54 -80 14 -26 35
-62 48 -79 12 -17 22 -34 22 -37 0 -3 13 -19 28 -36 15 -17 40 -55 56 -85 15
-29 43 -71 62 -92 19 -22 37 -48 40 -59 4 -11 24 -46 45 -77 22 -31 39 -62 39
-67 0 -6 4 -11 9 -11 8 0 65 -83 90 -132 7 -14 26 -40 42 -58 29 -31 29 -32
29 -160 0 -72 4 -130 9 -132 6 -2 13 -118 17 -273 10 -406 16 -486 37 -518 20
-31 54 -47 97 -47 24 0 32 -7 50 -45 12 -25 28 -51 34 -58 7 -7 38 -61 70
-121 31 -59 63 -115 71 -123 8 -8 30 -44 48 -81 58 -115 82 -156 94 -167 7 -5
29 -44 49 -85 21 -41 46 -87 56 -102 l19 -28 -238 0 -238 0 -105 45 -106 46
-22 72 c-12 40 -27 92 -33 117 -21 91 -57 190 -71 200 -11 9 -118 297 -118
319 0 11 -6 26 -14 34 -8 7 -23 42 -34 78 -38 123 -92 264 -102 267 -6 2 -10
9 -10 16 0 18 -121 310 -131 316 -4 3 -19 35 -33 70 -37 97 -94 220 -111 237
-8 8 -18 26 -22 41 -9 37 -92 213 -108 229 -16 16 -21 32 -30 95 -6 44 -47
137 -66 148 -12 8 -51 79 -110 200 -29 58 -55 107 -59 110 -4 3 -36 67 -70
143 -35 75 -67 137 -71 137 -4 0 -35 57 -69 126 -34 69 -69 134 -78 145 -22
26 -63 118 -54 122 4 3 63 -1 132 -7 l125 -11 9 -30 c13 -41 69 -169 77 -175
4 -3 32 -55 62 -117 31 -61 60 -113 65 -115 5 -1 37 -56 71 -121 34 -65 71
-127 82 -138 10 -10 19 -24 19 -30 0 -7 18 -40 40 -75 22 -35 40 -67 40 -72 0
-5 10 -21 23 -35 12 -15 42 -65 67 -112 24 -47 51 -94 60 -103 17 -21 37 -55
91 -164 21 -42 45 -83 54 -91 17 -18 77 -122 105 -183 10 -23 23 -43 28 -45 5
-2 37 -58 72 -124 35 -66 66 -122 70 -125 4 -3 31 -50 60 -105 29 -55 58 -105
65 -110 7 -6 20 -28 29 -49 9 -22 19 -37 21 -34 8 7 -32 96 -50 114 -8 9 -39
63 -67 122 -29 59 -56 109 -59 112 -4 3 -35 61 -70 130 -35 69 -67 127 -70
130 -4 3 -32 54 -63 115 -32 60 -61 112 -65 115 -8 5 -48 81 -93 171 -15 31
-33 63 -41 70 -12 13 -67 110 -119 214 -12 22 -26 44 -33 50 -7 5 -31 44 -52
85 -51 98 -65 120 -84 142 -9 10 -36 57 -60 104 -24 47 -51 93 -60 102 -8 9
-22 31 -30 47 -9 17 -35 68 -59 115 -24 47 -47 87 -51 90 -5 3 -20 31 -33 63
-22 50 -25 63 -17 105 6 26 12 63 15 83 4 19 14 44 24 55 18 20 42 68 42 84 0
5 -19 18 -43 28 -38 17 -47 27 -66 76 -17 41 -21 66 -17 92 l7 35 23 -43 c12
-24 31 -58 42 -77z m-436 -99 c40 -27 70 -56 70 -66 0 -5 10 -20 22 -33 18
-19 23 -36 23 -78 0 -30 -4 -55 -10 -56 -5 -1 -18 16 -29 37 -10 22 -22 41
-27 42 -8 3 -89 156 -89 168 0 9 16 3 40 -14z m2335 -81 c3 -5 1 -12 -4 -15
-5 -3 -11 1 -15 9 -6 16 9 21 19 6z m735 -799 l0 -279 -137 -6 c-75 -4 -246
-7 -380 -7 l-243 0 0 -437 0 -438 105 3 c58 2 105 7 105 13 0 5 21 9 48 9 l48
0 -3 203 c-2 111 -4 223 -6 249 l-2 47 80 5 c44 3 174 8 288 10 l208 5 -7
-102 c-3 -56 -16 -306 -29 -555 -12 -249 -24 -454 -26 -456 -5 -4 -1402 -37
-1404 -33 -1 1 -16 372 -33 825 l-32 823 25 37 c13 20 36 48 51 62 15 14 49
55 76 93 27 37 54 67 58 67 5 0 28 27 52 60 l42 60 80 1 c45 1 236 5 426 9
190 3 405 7 478 8 l132 2 0 -278z m-2911 196 c20 -37 43 -76 52 -86 9 -11 41
-64 72 -118 30 -54 63 -108 73 -118 9 -11 31 -44 47 -75 16 -31 40 -73 53 -93
13 -21 24 -42 24 -48 0 -5 4 -10 9 -10 12 0 76 -109 89 -151 6 -19 18 -128 28
-244 10 -115 20 -212 24 -215 4 -3 21 -171 39 -375 18 -203 34 -381 37 -395
l5 -26 -288 -12 c-158 -6 -289 -9 -292 -6 -3 2 -11 91 -19 197 -8 105 -16 194
-18 196 -4 4 -457 -29 -462 -34 -1 -1 -5 -65 -8 -141 -3 -77 -7 -154 -10 -171
l-5 -33 -275 0 -276 0 6 48 c3 26 17 238 32 472 15 234 31 427 34 430 4 3 10
53 13 111 7 110 8 115 90 294 18 39 35 72 39 75 4 3 15 24 24 45 31 75 107
240 113 245 10 8 113 233 118 258 3 12 15 24 27 27 26 6 429 23 510 21 l58 -1
37 -67z m2273 -2075 c10 -9 18 -21 18 -27 0 -6 14 -25 30 -43 32 -34 42 -97
18 -105 -10 -4 -13 -77 -13 -321 l0 -317 -109 0 c-132 0 -128 -3 -216 167 -33
64 -64 119 -69 122 -8 5 -58 95 -115 206 -11 21 -27 46 -36 55 -8 9 -33 51
-55 93 -22 42 -52 92 -67 110 -39 45 -36 57 15 58 23 1 150 5 282 8 132 4 253
8 269 9 16 1 38 -5 48 -15z"/>
<path d="M1222 2563 c-9 -21 -20 -40 -23 -43 -10 -9 -119 -269 -119 -284 0 -9
-4 -16 -9 -16 -4 0 -11 -42 -15 -92 -4 -51 -10 -113 -13 -137 l-6 -44 139 7
c76 4 165 9 198 12 l58 6 -7 122 c-6 99 -12 135 -37 199 -16 42 -35 83 -42 90
-6 6 -32 58 -56 115 -24 56 -45 102 -47 102 -2 0 -11 -17 -21 -37z"/>
</g>
</svg>
